<?xml version="1.0" encoding="utf-8"?>
<svg width="1120" height="600" viewBox="0 0 112 60" fill="none" xmlns="http://www.w3.org/2000/svg">
    <rect width="112" height="60" rx="5" fill="#DE2459"/>
    <path d="M16.917 20.073C17.3277 20.1463 17.676 20.3627 17.962 20.722C18.248 21.0813 18.391 21.4883 18.391 21.943C18.391 22.3317 18.2883 22.6837 18.083 22.999C17.885 23.307 17.5953 23.5527 17.214 23.736C16.8327 23.912 16.389 24 15.883 24H12.825V16.355H15.74C16.2607 16.355 16.708 16.443 17.082 16.619C17.456 16.795 17.7383 17.0333 17.929 17.334C18.1197 17.6273 18.215 17.9573 18.215 18.324C18.215 18.764 18.0977 19.1307 17.863 19.424C17.6283 19.7173 17.313 19.9337 16.917 20.073ZM14.079 19.567H15.63C16.0407 19.567 16.3597 19.4753 16.587 19.292C16.8217 19.1013 16.939 18.83 16.939 18.478C16.939 18.1333 16.8217 17.8657 16.587 17.675C16.3597 17.477 16.0407 17.378 15.63 17.378H14.079V19.567ZM15.773 22.977C16.1983 22.977 16.532 22.8743 16.774 22.669C17.016 22.4637 17.137 22.1777 17.137 21.811C17.137 21.437 17.0087 21.14 16.752 20.92C16.4953 20.7 16.1543 20.59 15.729 20.59H14.079V22.977H15.773ZM25.2427 17.939V24H23.9887V23.285C23.7907 23.5343 23.5304 23.7323 23.2077 23.879C22.8924 24.0183 22.555 24.088 22.1957 24.088C21.719 24.088 21.29 23.989 20.9087 23.791C20.5347 23.593 20.2377 23.2997 20.0177 22.911C19.805 22.5223 19.6987 22.053 19.6987 21.503V17.939H20.9417V21.316C20.9417 21.8587 21.0774 22.2767 21.3487 22.57C21.62 22.856 21.9904 22.999 22.4597 22.999C22.929 22.999 23.2994 22.856 23.5707 22.57C23.8494 22.2767 23.9887 21.8587 23.9887 21.316V17.939H25.2427ZM27.5353 17.136C27.3079 17.136 27.1173 17.059 26.9633 16.905C26.8093 16.751 26.7323 16.5603 26.7323 16.333C26.7323 16.1057 26.8093 15.915 26.9633 15.761C27.1173 15.607 27.3079 15.53 27.5353 15.53C27.7553 15.53 27.9423 15.607 28.0963 15.761C28.2503 15.915 28.3273 16.1057 28.3273 16.333C28.3273 16.5603 28.2503 16.751 28.0963 16.905C27.9423 17.059 27.7553 17.136 27.5353 17.136ZM28.1513 17.939V24H26.8973V17.939H28.1513ZM31.0517 15.86V24H29.7977V15.86H31.0517ZM34.161 18.962V22.317C34.161 22.5443 34.2124 22.7093 34.315 22.812C34.425 22.9073 34.6084 22.955 34.865 22.955H35.635V24H34.645C34.0804 24 33.6477 23.868 33.347 23.604C33.0464 23.34 32.896 22.911 32.896 22.317V18.962H32.181V17.939H32.896V16.432H34.161V17.939H35.635V18.962H34.161ZM47.7882 17.939L45.9072 24H44.5872L43.3662 19.523L42.1452 24H40.8252L38.9332 17.939H40.2092L41.4742 22.812L42.7612 17.939H44.0702L45.3022 22.79L46.5562 17.939H47.7882ZM49.3634 17.136C49.1361 17.136 48.9454 17.059 48.7914 16.905C48.6374 16.751 48.5604 16.5603 48.5604 16.333C48.5604 16.1057 48.6374 15.915 48.7914 15.761C48.9454 15.607 49.1361 15.53 49.3634 15.53C49.5834 15.53 49.7704 15.607 49.9244 15.761C50.0784 15.915 50.1554 16.1057 50.1554 16.333C50.1554 16.5603 50.0784 16.751 49.9244 16.905C49.7704 17.059 49.5834 17.136 49.3634 17.136ZM49.9794 17.939V24H48.7254V17.939H49.9794ZM53.0888 18.962V22.317C53.0888 22.5443 53.1401 22.7093 53.2428 22.812C53.3528 22.9073 53.5361 22.955 53.7928 22.955H54.5628V24H53.5728C53.0081 24 52.5754 23.868 52.2748 23.604C51.9741 23.34 51.8238 22.911 51.8238 22.317V18.962H51.1088V17.939H51.8238V16.432H53.0888V17.939H54.5628V18.962H53.0888ZM58.8536 17.84C59.3156 17.84 59.7262 17.939 60.0856 18.137C60.4522 18.335 60.7382 18.6283 60.9436 19.017C61.1562 19.4057 61.2626 19.875 61.2626 20.425V24H60.0196V20.612C60.0196 20.0693 59.8839 19.655 59.6126 19.369C59.3412 19.0757 58.9709 18.929 58.5016 18.929C58.0322 18.929 57.6582 19.0757 57.3796 19.369C57.1082 19.655 56.9726 20.0693 56.9726 20.612V24H55.7186V15.86H56.9726V18.643C57.1852 18.3863 57.4529 18.1883 57.7756 18.049C58.1056 17.9097 58.4649 17.84 58.8536 17.84Z" fill="white"/>
    <path d="M36.9086 36.5255C37.7316 36.5255 38.4331 36.7386 39.0132 37.1649C39.5933 37.5911 39.9921 38.1561 40.2099 38.8598V36.6288H41.2368V44.75H40.2099V42.519C39.9921 43.2233 39.5933 43.7886 39.0132 44.2149C38.4331 44.6411 37.7316 44.8543 36.9086 44.8543C36.1748 44.8543 35.5179 44.6857 34.9378 44.3486C34.3578 44.0116 33.9066 43.5281 33.5843 42.8982C33.262 42.2683 33.1008 41.5321 33.1008 40.6894C33.1008 39.8369 33.262 39.0957 33.5843 38.4658C33.9066 37.8366 34.3554 37.3559 34.9305 37.0237C35.5055 36.6915 36.165 36.5255 36.9086 36.5255ZM37.1762 37.4472C36.264 37.4472 35.5327 37.7372 34.9821 38.3173C34.4322 38.8973 34.1573 39.688 34.1573 40.6894C34.1573 41.6908 34.4322 42.4815 34.9821 43.0615C35.5327 43.6416 36.264 43.9316 37.1762 43.9316C37.7513 43.9316 38.2693 43.7978 38.7299 43.5303C39.1913 43.2627 39.5532 42.8835 39.8159 42.3926C40.0786 41.9018 40.2099 41.3341 40.2099 40.6894C40.2099 40.0447 40.0786 39.4773 39.8159 38.9871C39.5532 38.4963 39.1913 38.1168 38.7299 37.8485C38.2693 37.581 37.7513 37.4472 37.1762 37.4472ZM47.84 36.5255C48.5836 36.5255 49.2405 36.6915 49.8107 37.0237C50.3809 37.3559 50.8272 37.8366 51.1495 38.4658C51.4718 39.0957 51.633 39.8369 51.633 40.6894C51.633 41.5321 51.4718 42.2683 51.1495 42.8982C50.8272 43.5281 50.3785 44.0116 49.8034 44.3486C49.2283 44.6857 48.5737 44.8543 47.84 44.8543C47.0071 44.8543 46.3031 44.6411 45.728 44.2149C45.1529 43.7886 44.7564 43.2233 44.5387 42.519V48.5873H43.497V36.6288H44.5387V38.8598C44.7564 38.1561 45.1529 37.5911 45.728 37.1649C46.3031 36.7386 47.0071 36.5255 47.84 36.5255ZM47.5576 37.4472C46.9825 37.4472 46.4643 37.581 46.003 37.8485C45.5423 38.1168 45.183 38.4963 44.9253 38.9871C44.6676 39.4773 44.5387 40.0447 44.5387 40.6894C44.5387 41.3341 44.6676 41.9018 44.9253 42.3926C45.183 42.8835 45.5423 43.2627 46.003 43.5303C46.4643 43.7978 46.9825 43.9316 47.5576 43.9316C48.4796 43.9316 49.2135 43.6416 49.7591 43.0615C50.3041 42.4815 50.5765 41.6908 50.5765 40.6894C50.5765 39.688 50.3041 38.8973 49.7591 38.3173C49.2135 37.7372 48.4796 37.4472 47.5576 37.4472ZM57.8496 36.5255C58.5932 36.5255 59.2501 36.6915 59.8203 37.0237C60.3905 37.3559 60.8368 37.8366 61.1591 38.4658C61.4814 39.0957 61.6426 39.8369 61.6426 40.6894C61.6426 41.5321 61.4814 42.2683 61.1591 42.8982C60.8368 43.5281 60.3881 44.0116 59.813 44.3486C59.2379 44.6857 58.5833 44.8543 57.8496 44.8543C57.0167 44.8543 56.3127 44.6411 55.7376 44.2149C55.1625 43.7886 54.766 43.2233 54.5483 42.519V48.5873H53.5066V36.6288H54.5483V38.8598C54.766 38.1561 55.1625 37.5911 55.7376 37.1649C56.3127 36.7386 57.0167 36.5255 57.8496 36.5255ZM57.5672 37.4472C56.9921 37.4472 56.4739 37.581 56.0126 37.8485C55.5519 38.1168 55.1926 38.4963 54.9349 38.9871C54.6772 39.4773 54.5483 40.0447 54.5483 40.6894C54.5483 41.3341 54.6772 41.9018 54.9349 42.3926C55.1926 42.8835 55.5519 43.2627 56.0126 43.5303C56.4739 43.7978 56.9921 43.9316 57.5672 43.9316C58.4892 43.9316 59.2231 43.6416 59.7687 43.0615C60.3137 42.4815 60.5862 41.6908 60.5862 40.6894C60.5862 39.688 60.3137 38.8973 59.7687 38.3173C59.2231 37.7372 58.4892 37.4472 57.5672 37.4472ZM73.169 36.5107H75.1324L72.9162 44.75H70.5957L68.8261 38.7564L67.0112 44.75H64.6917L62.4902 36.5107H64.5874L65.9262 42.8761L67.7549 36.5107H69.9711L71.8155 42.8761L73.169 36.5107ZM78.2709 38.0866C78.5777 37.5613 78.9841 37.1473 79.4897 36.8447C79.9958 36.5427 80.5612 36.3917 81.1855 36.3917V38.6374H80.5756C79.0391 38.6374 78.2709 39.3513 78.2709 40.7789V44.75H76.1737V36.5107H78.2709V38.0866ZM82.1079 34.145C82.1079 33.808 82.2269 33.533 82.465 33.3202C82.703 33.1068 83.0152 33 83.4015 33C83.7884 33 84.1008 33.1068 84.3389 33.3202C84.5769 33.533 84.6959 33.808 84.6959 34.145C84.6959 34.4723 84.5769 34.7426 84.3389 34.956C84.1008 35.1694 83.7884 35.2762 83.4015 35.2762C83.0152 35.2762 82.703 35.1694 82.465 34.956C82.2269 34.7426 82.1079 34.4723 82.1079 34.145ZM82.3459 36.5107H84.4431V44.75H82.3459V36.5107ZM89.9314 42.9499H90.7488V44.75H89.6481C88.726 44.75 88.0196 44.527 87.5288 44.0811C87.0379 43.6345 86.7925 42.8909 86.7925 41.8501V38.2804H85.6475V36.5107H86.7925V34.4726H88.8897V36.5107H90.7341V38.2804H88.8897V41.8796C88.8897 42.2764 88.969 42.5541 89.1277 42.7128C89.2864 42.8708 89.5543 42.9499 89.9314 42.9499ZM99.9999 40.3176C99.9999 40.5261 99.9753 40.7641 99.9261 41.0317H93.8873C93.9169 41.7655 94.1152 42.3059 94.4824 42.6528C94.849 42.9997 95.3051 43.1732 95.8507 43.1732C96.3366 43.1732 96.7405 43.0542 97.0622 42.8161C97.3845 42.5787 97.5902 42.2567 97.6794 41.8501H99.8957C99.7868 42.4252 99.5539 42.9407 99.1972 43.3965C98.8398 43.8529 98.3812 44.21 97.8215 44.4677C97.2611 44.7254 96.639 44.8543 95.955 44.8543C95.1516 44.8543 94.4375 44.6833 93.8126 44.3413C93.1882 43.9992 92.7026 43.5109 92.3557 42.8761C92.0082 42.2413 91.8344 41.4928 91.8344 40.6304C91.8344 39.7674 92.0082 39.0164 92.3557 38.3772C92.7026 37.7376 93.1882 37.2491 93.8126 36.9121C94.4375 36.575 95.1516 36.4064 95.955 36.4064C96.7675 36.4064 97.4789 36.575 98.0891 36.9121C98.6986 37.2491 99.1695 37.7126 99.5017 38.3025C99.8338 38.8923 99.9999 39.564 99.9999 40.3176ZM97.888 40.11C97.918 39.4352 97.7422 38.9244 97.3602 38.5774C96.9782 38.2305 96.5098 38.0571 95.955 38.0571C95.3897 38.0571 94.9136 38.2305 94.5267 38.5774C94.1398 38.9244 93.9266 39.4352 93.8873 40.11H97.888Z" fill="white"/>
    <path d="M30.0077 40.9268C30.0077 44.239 27.3226 46.924 24.0104 46.924C22.4719 46.924 21.0687 46.3447 20.0071 45.3923C21.7078 44.6267 22.8919 42.9171 22.8919 40.931C22.8919 38.9424 21.7049 37.2311 20.0007 36.4669C21.0632 35.5112 22.4688 34.9295 24.0104 34.9295C27.3226 34.9295 30.0077 37.6146 30.0077 40.9268Z" fill="white"/>
    <path d="M21.6131 36.1397C20.9845 35.6646 20.2685 35.3181 19.5059 35.1199C18.7433 34.9217 17.9491 34.8757 17.1688 34.9845C16.3884 35.0934 15.6371 35.3549 14.9579 35.7543C14.2786 36.1536 13.6847 36.6828 13.2101 37.3118C12.7355 37.9407 12.3895 38.657 12.1918 39.4197C11.9941 40.1825 11.9487 40.9767 12.0581 41.757C12.1675 42.5373 12.4296 43.2884 12.8294 43.9673C13.2292 44.6463 13.7588 45.2398 14.3881 45.714C15.6578 46.6721 17.256 47.0866 18.8312 46.8663C20.4065 46.646 21.8297 45.8089 22.7878 44.5393C23.7459 43.2697 24.1604 41.6714 23.9401 40.0962C23.7198 38.5209 22.8828 37.0977 21.6131 36.1396V36.1397ZM20.9462 37.0234C21.9814 37.8046 22.6639 38.9651 22.8435 40.2495C23.0231 41.5339 22.6852 42.8371 21.904 43.8724C21.1227 44.9076 19.9623 45.5901 18.6779 45.7697C17.3934 45.9494 16.0902 45.6114 15.055 44.8302C14.0198 44.049 13.3373 42.8885 13.1576 41.6041C12.978 40.3196 13.316 39.0165 14.0972 37.9812C14.8784 36.946 16.0389 36.2635 17.3233 36.0838C18.6077 35.9042 19.9109 36.2422 20.9462 37.0234Z" fill="white"/>
    <path d="M18.1614 38.8518C18.1542 38.8696 18.0625 39.2297 17.9638 39.6569C17.8613 40.084 17.6989 40.7583 17.6073 41.1573C17.4306 41.888 17.3247 42.3682 17.3247 42.4317C17.3247 42.4493 17.4342 42.4636 17.5682 42.4636H17.8119L17.9212 41.9762C17.9849 41.7115 18.1262 41.1042 18.2391 40.6277C18.3521 40.151 18.4897 39.5721 18.5427 39.339C18.5956 39.1059 18.6486 38.8943 18.6593 38.8696C18.6699 38.8378 18.6097 38.8273 18.4262 38.8273C18.2885 38.8273 18.1683 38.8378 18.1614 38.8518ZM16.2654 40.3805L15.9407 40.7336L16.0361 40.8465C16.0889 40.91 16.2338 41.069 16.3573 41.1996L16.5833 41.4396H17.2258L16.9223 41.1112C16.7562 40.9349 16.6185 40.7653 16.6185 40.7442C16.6185 40.7195 16.7457 40.5607 16.9011 40.3912C17.0563 40.2183 17.1835 40.0698 17.1835 40.0522C17.1835 40.0381 17.0493 40.0275 16.8869 40.0275H16.5939L16.2654 40.3805ZM18.7368 40.0486C18.7368 40.0593 18.7968 40.1263 18.8708 40.2005C19.1464 40.4758 19.3406 40.709 19.33 40.7547C19.3229 40.7795 19.1887 40.9453 19.0264 41.1183L18.7335 41.4396H19.0616L19.39 41.4361L19.69 41.1078C19.856 40.9244 19.9901 40.7617 19.9901 40.7406C19.9901 40.7231 19.8489 40.5571 19.6723 40.3701L19.3548 40.0275H19.0474C18.8744 40.0275 18.7368 40.0381 18.7368 40.0486Z" fill="white"/>
</svg>
